<?xml version="1.0" encoding="UTF-8"?><svg xmlns="http://www.w3.org/2000/svg" xmlns:xlink="http://www.w3.org/1999/xlink" contentStyleType="text/css" height="910px" preserveAspectRatio="none" style="width:2967px;height:910px;background:#FFFFFF;" version="1.1" viewBox="0 0 2967 910" width="2967px" zoomAndPan="magnify">
    <defs/>
    <g>
        <!--cluster Interfaces_HClinica-->
        <g id="cluster_Interfaces_HClinica">
            <path d="M8.5,58 L145.5,58 A3.75,3.75 0 0 1 148,60.5 L155,81.6094 L774.5,81.6094 A2.5,2.5 0 0 1 777,84.1094 L777,443.5 A2.5,2.5 0 0 1 774.5,446 L8.5,446 A2.5,2.5 0 0 1 6,443.5 L6,60.5 A2.5,2.5 0 0 1 8.5,58 " fill="none" style="stroke:#000000;stroke-width:1.5;"/>
            <line style="stroke:#000000;stroke-width:1.5;" x1="6" x2="155" y1="81.6094" y2="81.6094"/>
            <text fill="#000000" font-family="sans-serif" font-size="14" font-weight="bold" lengthAdjust="spacing" textLength="136" x="10" y="74.5332">Interfaces_HClinica</text>
        </g>
        <!--cluster Usuario-->
        <g id="cluster_Usuario">
            <path d="M1918.5,6 L1973.5,6 A3.75,3.75 0 0 1 1976,8.5 L1983,29.6094 L2396.5,29.6094 A2.5,2.5 0 0 1 2399,32.1094 L2399,242.5 A2.5,2.5 0 0 1 2396.5,245 L1918.5,245 A2.5,2.5 0 0 1 1916,242.5 L1916,8.5 A2.5,2.5 0 0 1 1918.5,6 " fill="none" style="stroke:#000000;stroke-width:1.5;"/>
            <line style="stroke:#000000;stroke-width:1.5;" x1="1916" x2="1983" y1="29.6094" y2="29.6094"/>
            <text fill="#000000" font-family="sans-serif" font-size="14" font-weight="bold" lengthAdjust="spacing" textLength="54" x="1920" y="22.5332">Usuario</text>
        </g>
        <!--cluster Medico-->
        <g id="cluster_Medico">
            <path d="M1357.5,320.5 L1410.5,320.5 A3.75,3.75 0 0 1 1413,323 L1420,344.1094 L1726.5,344.1094 A2.5,2.5 0 0 1 1729,346.6094 L1729,657 A2.5,2.5 0 0 1 1726.5,659.5 L1357.5,659.5 A2.5,2.5 0 0 1 1355,657 L1355,323 A2.5,2.5 0 0 1 1357.5,320.5 " fill="none" style="stroke:#000000;stroke-width:1.5;"/>
            <line style="stroke:#000000;stroke-width:1.5;" x1="1355" x2="1420" y1="344.1094" y2="344.1094"/>
            <text fill="#000000" font-family="sans-serif" font-size="14" font-weight="bold" lengthAdjust="spacing" textLength="52" x="1359" y="337.0332">Medico</text>
        </g>
        <!--cluster Paciente-->
        <g id="cluster_Paciente">
            <path d="M2120.5,294 L2182.5,294 A3.75,3.75 0 0 1 2185,296.5 L2192,317.6094 L2957.5,317.6094 A2.5,2.5 0 0 1 2960,320.1094 L2960,674.5 A2.5,2.5 0 0 1 2957.5,677 L2120.5,677 A2.5,2.5 0 0 1 2118,674.5 L2118,296.5 A2.5,2.5 0 0 1 2120.5,294 " fill="none" style="stroke:#000000;stroke-width:1.5;"/>
            <line style="stroke:#000000;stroke-width:1.5;" x1="2118" x2="2192" y1="317.6094" y2="317.6094"/>
            <text fill="#000000" font-family="sans-serif" font-size="14" font-weight="bold" lengthAdjust="spacing" textLength="61" x="2122" y="310.5332">Paciente</text>
        </g>
        <!--class IHistoriaClinica-->
        <g id="elem_IHistoriaClinica">
            <rect codeLine="2" fill="#F1F1F1" height="83.2188" id="IHistoriaClinica" rx="2.5" ry="2.5" style="stroke:#181818;stroke-width:0.5;" width="378" x="22" y="94"/>
            <ellipse cx="159.75" cy="110" fill="#B4A7E5" rx="11" ry="11" style="stroke:#181818;stroke-width:1.0;"/>
            <path d="M160.7031,106.6406 L160.7031,113.2969 L162.4219,113.2969 Q163.0313,113.2969 163.2969,113.5313 Q163.5625,113.7656 163.5625,114.1563 Q163.5625,114.5313 163.2969,114.7656 Q163.0313,115 162.4219,115 L157.2813,115 Q156.6719,115 156.4063,114.7656 Q156.1406,114.5313 156.1406,114.1406 Q156.1406,113.7656 156.4063,113.5313 Q156.6719,113.2969 157.2813,113.2969 L159,113.2969 L159,106.6406 L157.2813,106.6406 Q156.6719,106.6406 156.4063,106.4063 Q156.1406,106.1719 156.1406,105.7813 Q156.1406,105.4063 156.4063,105.1719 Q156.6719,104.9375 157.2813,104.9375 L162.4219,104.9375 Q163.0313,104.9375 163.2969,105.1719 Q163.5625,105.4063 163.5625,105.7813 Q163.5625,106.1719 163.2969,106.4063 Q163.0313,106.6406 162.4219,106.6406 L160.7031,106.6406 Z " fill="#000000"/>
            <text fill="#000000" font-family="sans-serif" font-size="14" font-style="italic" lengthAdjust="spacing" textLength="94" x="180.25" y="115.7285">IHistoriaClinica</text>
            <line style="stroke:#181818;stroke-width:0.5;" x1="23" x2="399" y1="126" y2="126"/>
            <line style="stroke:#181818;stroke-width:0.5;" x1="23" x2="399" y1="134" y2="134"/>
            <ellipse cx="33" cy="148.3047" fill="#84BE84" rx="3" ry="3" style="stroke:#038048;stroke-width:1.0;"/>
            <text fill="#000000" font-family="sans-serif" font-size="14" lengthAdjust="spacing" textLength="352" x="42" y="152.5332">registrarConsulta(String diagnostico, String tratamiento)</text>
            <ellipse cx="33" cy="165.9141" fill="#84BE84" rx="3" ry="3" style="stroke:#038048;stroke-width:1.0;"/>
            <text fill="#000000" font-family="sans-serif" font-size="14" lengthAdjust="spacing" textLength="233" x="42" y="170.1426">obtenerInformacionConsulta(): String</text>
        </g>
        <!--class IHistoriaClinicaManager-->
        <g id="elem_IHistoriaClinicaManager">
            <rect codeLine="7" fill="#F1F1F1" height="83.2188" id="IHistoriaClinicaManager" rx="2.5" ry="2.5" style="stroke:#181818;stroke-width:0.5;" width="326" x="435" y="94"/>
            <ellipse cx="518.25" cy="110" fill="#B4A7E5" rx="11" ry="11" style="stroke:#181818;stroke-width:1.0;"/>
            <path d="M519.2031,106.6406 L519.2031,113.2969 L520.9219,113.2969 Q521.5313,113.2969 521.7969,113.5313 Q522.0625,113.7656 522.0625,114.1563 Q522.0625,114.5313 521.7969,114.7656 Q521.5313,115 520.9219,115 L515.7813,115 Q515.1719,115 514.9063,114.7656 Q514.6406,114.5313 514.6406,114.1406 Q514.6406,113.7656 514.9063,113.5313 Q515.1719,113.2969 515.7813,113.2969 L517.5,113.2969 L517.5,106.6406 L515.7813,106.6406 Q515.1719,106.6406 514.9063,106.4063 Q514.6406,106.1719 514.6406,105.7813 Q514.6406,105.4063 514.9063,105.1719 Q515.1719,104.9375 515.7813,104.9375 L520.9219,104.9375 Q521.5313,104.9375 521.7969,105.1719 Q522.0625,105.4063 522.0625,105.7813 Q522.0625,106.1719 521.7969,106.4063 Q521.5313,106.6406 520.9219,106.6406 L519.2031,106.6406 Z " fill="#000000"/>
            <text fill="#000000" font-family="sans-serif" font-size="14" font-style="italic" lengthAdjust="spacing" textLength="151" x="538.75" y="115.7285">IHistoriaClinicaManager</text>
            <line style="stroke:#181818;stroke-width:0.5;" x1="436" x2="760" y1="126" y2="126"/>
            <line style="stroke:#181818;stroke-width:0.5;" x1="436" x2="760" y1="134" y2="134"/>
            <ellipse cx="446" cy="148.3047" fill="#84BE84" rx="3" ry="3" style="stroke:#038048;stroke-width:1.0;"/>
            <text fill="#000000" font-family="sans-serif" font-size="14" lengthAdjust="spacing" textLength="291" x="455" y="152.5332">agregarHistoriaClinica(IHistoriaClinica historia)</text>
            <ellipse cx="446" cy="165.9141" fill="#84BE84" rx="3" ry="3" style="stroke:#038048;stroke-width:1.0;"/>
            <text fill="#000000" font-family="sans-serif" font-size="14" lengthAdjust="spacing" textLength="300" x="455" y="170.1426">obtenerHistoriasClinicas(): List&lt;IHistoriaClinica&gt;</text>
        </g>
        <!--class IGestionaConsulta-->
        <g id="elem_IGestionaConsulta">
            <rect codeLine="12" fill="#F1F1F1" height="83.2188" id="IGestionaConsulta" rx="2.5" ry="2.5" style="stroke:#181818;stroke-width:0.5;" width="542" x="22" y="347"/>
            <ellipse cx="230.25" cy="363" fill="#B4A7E5" rx="11" ry="11" style="stroke:#181818;stroke-width:1.0;"/>
            <path d="M231.2031,359.6406 L231.2031,366.2969 L232.9219,366.2969 Q233.5313,366.2969 233.7969,366.5313 Q234.0625,366.7656 234.0625,367.1563 Q234.0625,367.5313 233.7969,367.7656 Q233.5313,368 232.9219,368 L227.7813,368 Q227.1719,368 226.9063,367.7656 Q226.6406,367.5313 226.6406,367.1406 Q226.6406,366.7656 226.9063,366.5313 Q227.1719,366.2969 227.7813,366.2969 L229.5,366.2969 L229.5,359.6406 L227.7813,359.6406 Q227.1719,359.6406 226.9063,359.4063 Q226.6406,359.1719 226.6406,358.7813 Q226.6406,358.4063 226.9063,358.1719 Q227.1719,357.9375 227.7813,357.9375 L232.9219,357.9375 Q233.5313,357.9375 233.7969,358.1719 Q234.0625,358.4063 234.0625,358.7813 Q234.0625,359.1719 233.7969,359.4063 Q233.5313,359.6406 232.9219,359.6406 L231.2031,359.6406 Z " fill="#000000"/>
            <text fill="#000000" font-family="sans-serif" font-size="14" font-style="italic" lengthAdjust="spacing" textLength="117" x="250.75" y="368.7285">IGestionaConsulta</text>
            <line style="stroke:#181818;stroke-width:0.5;" x1="23" x2="563" y1="379" y2="379"/>
            <line style="stroke:#181818;stroke-width:0.5;" x1="23" x2="563" y1="387" y2="387"/>
            <ellipse cx="33" cy="401.3047" fill="#84BE84" rx="3" ry="3" style="stroke:#038048;stroke-width:1.0;"/>
            <text fill="#000000" font-family="sans-serif" font-size="14" lengthAdjust="spacing" textLength="516" x="42" y="405.5332">registrarConsulta(Scanner sc, Medico medico, String pathArchivoPacientes) : void</text>
            <ellipse cx="33" cy="418.9141" fill="#84BE84" rx="3" ry="3" style="stroke:#038048;stroke-width:1.0;"/>
            <text fill="#000000" font-family="sans-serif" font-size="14" lengthAdjust="spacing" textLength="252" x="42" y="423.1426">verHistorialConsultas(Scanner sc) : void</text>
        </g>
        <!--class Usuario-->
        <g id="elem_Usuario">
            <rect codeLine="19" fill="#F1F1F1" height="171.2656" id="Usuario" rx="2.5" ry="2.5" style="stroke:#181818;stroke-width:0.5;" width="415" x="1959.5" y="50"/>
            <ellipse cx="2138.25" cy="66" fill="#A9DCDF" rx="11" ry="11" style="stroke:#181818;stroke-width:1.0;"/>
            <path d="M2140.4375,67.7656 L2136.2969,67.7656 L2135.875,68.7969 L2136.2969,68.7969 Q2136.9063,68.7969 2137.1719,69.0313 Q2137.4375,69.2656 2137.4375,69.6563 Q2137.4375,70.0313 2137.1719,70.2656 Q2136.9063,70.5 2136.2969,70.5 L2134,70.5 Q2133.3906,70.5 2133.1406,70.2656 Q2132.875,70.0313 2132.875,69.6406 Q2132.875,69.2656 2133.1563,69.0313 Q2133.4219,68.7813 2134.0469,68.7969 L2136.7188,62.1406 L2135.6094,62.1406 Q2135,62.1406 2134.7344,61.9063 Q2134.4688,61.6719 2134.4688,61.2813 Q2134.4688,60.9063 2134.7344,60.6719 Q2135,60.4375 2135.6094,60.4375 L2139.2813,60.4375 L2142.6719,68.7969 Q2143.2656,68.7969 2143.4531,68.9375 Q2143.8438,69.2031 2143.8438,69.6563 Q2143.8438,70.0313 2143.5781,70.2656 Q2143.3281,70.5 2142.7188,70.5 L2140.4219,70.5 Q2139.8125,70.5 2139.5469,70.2656 Q2139.2813,70.0313 2139.2813,69.6406 Q2139.2813,69.2656 2139.5469,69.0313 Q2139.8125,68.7969 2140.4219,68.7969 L2140.8438,68.7969 L2140.4375,67.7656 Z M2139.7188,66.0625 L2138.3594,62.6875 L2136.9844,66.0625 L2139.7188,66.0625 Z " fill="#000000"/>
            <text fill="#000000" font-family="sans-serif" font-size="14" font-style="italic" lengthAdjust="spacing" textLength="49" x="2158.75" y="71.7285">Usuario</text>
            <line style="stroke:#181818;stroke-width:0.5;" x1="1960.5" x2="2373.5" y1="82" y2="82"/>
            <rect fill="none" height="6" style="stroke:#C82930;stroke-width:1.0;" width="6" x="1967.5" y="93.3047"/>
            <text fill="#000000" font-family="sans-serif" font-size="14" lengthAdjust="spacing" textLength="93" x="1979.5" y="100.5332">nombre: String</text>
            <rect fill="none" height="6" style="stroke:#C82930;stroke-width:1.0;" width="6" x="1967.5" y="110.9141"/>
            <text fill="#000000" font-family="sans-serif" font-size="14" lengthAdjust="spacing" textLength="94" x="1979.5" y="118.1426">apellido: String</text>
            <rect fill="none" height="6" style="stroke:#C82930;stroke-width:1.0;" width="6" x="1967.5" y="128.5234"/>
            <text fill="#000000" font-family="sans-serif" font-size="14" lengthAdjust="spacing" textLength="64" x="1979.5" y="135.752">dni: String</text>
            <rect fill="none" height="6" style="stroke:#C82930;stroke-width:1.0;" width="6" x="1967.5" y="146.1328"/>
            <text fill="#000000" font-family="sans-serif" font-size="14" lengthAdjust="spacing" textLength="105" x="1979.5" y="153.3613">password: String</text>
            <rect fill="none" height="6" style="stroke:#C82930;stroke-width:1.0;" width="6" x="1967.5" y="163.7422"/>
            <text fill="#000000" font-family="sans-serif" font-size="14" lengthAdjust="spacing" textLength="156" x="1979.5" y="170.9707">encriptador: IEncriptador</text>
            <line style="stroke:#181818;stroke-width:0.5;" x1="1960.5" x2="2373.5" y1="178.0469" y2="178.0469"/>
            <ellipse cx="1970.5" cy="192.3516" fill="#84BE84" rx="3" ry="3" style="stroke:#038048;stroke-width:1.0;"/>
            <text fill="#000000" font-family="sans-serif" font-size="14" lengthAdjust="spacing" textLength="389" x="1979.5" y="196.5801">verificarPassword(dni: String, inputPassword: String): boolean</text>
            <ellipse cx="1970.5" cy="209.9609" fill="#84BE84" rx="3" ry="3" style="stroke:#038048;stroke-width:1.0;"/>
            <text fill="#000000" font-family="sans-serif" font-size="14" lengthAdjust="spacing" textLength="277" x="1979.5" y="214.1895">encriptarPassword(password: String): String</text>
        </g>
        <!--class Medico-->
        <g id="elem_Medico">
            <rect codeLine="31" fill="#F1F1F1" height="100.8281" id="Medico" rx="2.5" ry="2.5" style="stroke:#181818;stroke-width:0.5;" width="318" x="1379" y="534.5"/>
            <ellipse cx="1511.25" cy="550.5" fill="#ADD1B2" rx="11" ry="11" style="stroke:#181818;stroke-width:1.0;"/>
            <path d="M1514.0156,546.375 Q1514.1719,546.1563 1514.3594,546.0469 Q1514.5469,545.9375 1514.7656,545.9375 Q1515.1406,545.9375 1515.375,546.2031 Q1515.6094,546.4531 1515.6094,547.0625 L1515.6094,548.5156 Q1515.6094,549.125 1515.375,549.3906 Q1515.1406,549.6563 1514.7656,549.6563 Q1514.4219,549.6563 1514.2188,549.4531 Q1514.0156,549.2656 1513.9063,548.75 Q1513.8594,548.3906 1513.6719,548.2031 Q1513.3438,547.8281 1512.7344,547.6094 Q1512.125,547.3906 1511.5,547.3906 Q1510.7344,547.3906 1510.0938,547.7188 Q1509.4688,548.0469 1508.9688,548.7969 Q1508.4844,549.5469 1508.4844,550.5781 L1508.4844,551.6719 Q1508.4844,552.9063 1509.375,553.7344 Q1510.2656,554.5469 1511.8594,554.5469 Q1512.7969,554.5469 1513.4531,554.2969 Q1513.8438,554.1406 1514.2656,553.7031 Q1514.5313,553.4375 1514.6719,553.3594 Q1514.8281,553.2813 1515.0313,553.2813 Q1515.3594,553.2813 1515.6094,553.5469 Q1515.875,553.7969 1515.875,554.1406 Q1515.875,554.4844 1515.5313,554.8906 Q1515.0313,555.4688 1514.2344,555.7969 Q1513.1563,556.25 1511.8594,556.25 Q1510.3438,556.25 1509.1406,555.625 Q1508.1563,555.125 1507.4688,554.0625 Q1506.7813,552.9844 1506.7813,551.7031 L1506.7813,550.5469 Q1506.7813,549.2188 1507.3906,548.0781 Q1508.0156,546.9219 1509.1094,546.3125 Q1510.2031,545.6875 1511.4375,545.6875 Q1512.1719,545.6875 1512.8125,545.8594 Q1513.4688,546.0156 1514.0156,546.375 Z " fill="#000000"/>
            <text fill="#000000" font-family="sans-serif" font-size="14" lengthAdjust="spacing" textLength="45" x="1531.75" y="556.2285">Medico</text>
            <line style="stroke:#181818;stroke-width:0.5;" x1="1380" x2="1696" y1="566.5" y2="566.5"/>
            <rect fill="none" height="6" style="stroke:#C82930;stroke-width:1.0;" width="6" x="1387" y="577.8047"/>
            <text fill="#000000" font-family="sans-serif" font-size="14" lengthAdjust="spacing" textLength="124" x="1399" y="585.0332">especialidad: String</text>
            <line style="stroke:#181818;stroke-width:0.5;" x1="1380" x2="1696" y1="592.1094" y2="592.1094"/>
            <ellipse cx="1390" cy="606.4141" fill="#84BE84" rx="3" ry="3" style="stroke:#038048;stroke-width:1.0;"/>
            <text fill="#000000" font-family="sans-serif" font-size="14" lengthAdjust="spacing" textLength="233" x="1399" y="610.6426">diagnosticar(sintomas: String): String</text>
            <ellipse cx="1390" cy="624.0234" fill="#84BE84" rx="3" ry="3" style="stroke:#038048;stroke-width:1.0;"/>
            <text fill="#000000" font-family="sans-serif" font-size="14" lengthAdjust="spacing" textLength="292" x="1399" y="628.252">recetarTratamiento(tratamiento: String): String</text>
        </g>
        <!--class Usuario-->
        <g id="elem_Usuario">
            <rect fill="#F1F1F1" height="48" id="Usuario" rx="2.5" ry="2.5" style="stroke:#181818;stroke-width:0.5;" width="80" x="1498" y="364.5"/>
            <ellipse cx="1513" cy="380.5" fill="#ADD1B2" rx="11" ry="11" style="stroke:#181818;stroke-width:1.0;"/>
            <path d="M1515.7656,376.375 Q1515.9219,376.1563 1516.1094,376.0469 Q1516.2969,375.9375 1516.5156,375.9375 Q1516.8906,375.9375 1517.125,376.2031 Q1517.3594,376.4531 1517.3594,377.0625 L1517.3594,378.5156 Q1517.3594,379.125 1517.125,379.3906 Q1516.8906,379.6563 1516.5156,379.6563 Q1516.1719,379.6563 1515.9688,379.4531 Q1515.7656,379.2656 1515.6563,378.75 Q1515.6094,378.3906 1515.4219,378.2031 Q1515.0938,377.8281 1514.4844,377.6094 Q1513.875,377.3906 1513.25,377.3906 Q1512.4844,377.3906 1511.8438,377.7188 Q1511.2188,378.0469 1510.7188,378.7969 Q1510.2344,379.5469 1510.2344,380.5781 L1510.2344,381.6719 Q1510.2344,382.9063 1511.125,383.7344 Q1512.0156,384.5469 1513.6094,384.5469 Q1514.5469,384.5469 1515.2031,384.2969 Q1515.5938,384.1406 1516.0156,383.7031 Q1516.2813,383.4375 1516.4219,383.3594 Q1516.5781,383.2813 1516.7813,383.2813 Q1517.1094,383.2813 1517.3594,383.5469 Q1517.625,383.7969 1517.625,384.1406 Q1517.625,384.4844 1517.2813,384.8906 Q1516.7813,385.4688 1515.9844,385.7969 Q1514.9063,386.25 1513.6094,386.25 Q1512.0938,386.25 1510.8906,385.625 Q1509.9063,385.125 1509.2188,384.0625 Q1508.5313,382.9844 1508.5313,381.7031 L1508.5313,380.5469 Q1508.5313,379.2188 1509.1406,378.0781 Q1509.7656,376.9219 1510.8594,376.3125 Q1511.9531,375.6875 1513.1875,375.6875 Q1513.9219,375.6875 1514.5625,375.8594 Q1515.2188,376.0156 1515.7656,376.375 Z " fill="#000000"/>
            <text fill="#000000" font-family="sans-serif" font-size="14" lengthAdjust="spacing" textLength="48" x="1527" y="386.2285">Usuario</text>
            <line style="stroke:#181818;stroke-width:0.5;" x1="1499" x2="1577" y1="396.5" y2="396.5"/>
            <line style="stroke:#181818;stroke-width:0.5;" x1="1499" x2="1577" y1="404.5" y2="404.5"/>
        </g>
        <!--class Paciente-->
        <g id="elem_Paciente">
            <rect codeLine="39" fill="#F1F1F1" height="136.0469" id="Paciente" rx="2.5" ry="2.5" style="stroke:#181818;stroke-width:0.5;" width="351" x="2573.5" y="517"/>
            <ellipse cx="2717.25" cy="533" fill="#ADD1B2" rx="11" ry="11" style="stroke:#181818;stroke-width:1.0;"/>
            <path d="M2720.0156,528.875 Q2720.1719,528.6563 2720.3594,528.5469 Q2720.5469,528.4375 2720.7656,528.4375 Q2721.1406,528.4375 2721.375,528.7031 Q2721.6094,528.9531 2721.6094,529.5625 L2721.6094,531.0156 Q2721.6094,531.625 2721.375,531.8906 Q2721.1406,532.1563 2720.7656,532.1563 Q2720.4219,532.1563 2720.2188,531.9531 Q2720.0156,531.7656 2719.9063,531.25 Q2719.8594,530.8906 2719.6719,530.7031 Q2719.3438,530.3281 2718.7344,530.1094 Q2718.125,529.8906 2717.5,529.8906 Q2716.7344,529.8906 2716.0938,530.2188 Q2715.4688,530.5469 2714.9688,531.2969 Q2714.4844,532.0469 2714.4844,533.0781 L2714.4844,534.1719 Q2714.4844,535.4063 2715.375,536.2344 Q2716.2656,537.0469 2717.8594,537.0469 Q2718.7969,537.0469 2719.4531,536.7969 Q2719.8438,536.6406 2720.2656,536.2031 Q2720.5313,535.9375 2720.6719,535.8594 Q2720.8281,535.7813 2721.0313,535.7813 Q2721.3594,535.7813 2721.6094,536.0469 Q2721.875,536.2969 2721.875,536.6406 Q2721.875,536.9844 2721.5313,537.3906 Q2721.0313,537.9688 2720.2344,538.2969 Q2719.1563,538.75 2717.8594,538.75 Q2716.3438,538.75 2715.1406,538.125 Q2714.1563,537.625 2713.4688,536.5625 Q2712.7813,535.4844 2712.7813,534.2031 L2712.7813,533.0469 Q2712.7813,531.7188 2713.3906,530.5781 Q2714.0156,529.4219 2715.1094,528.8125 Q2716.2031,528.1875 2717.4375,528.1875 Q2718.1719,528.1875 2718.8125,528.3594 Q2719.4688,528.5156 2720.0156,528.875 Z " fill="#000000"/>
            <text fill="#000000" font-family="sans-serif" font-size="14" lengthAdjust="spacing" textLength="55" x="2737.75" y="538.7285">Paciente</text>
            <line style="stroke:#181818;stroke-width:0.5;" x1="2574.5" x2="2923.5" y1="549" y2="549"/>
            <rect fill="none" height="6" style="stroke:#C82930;stroke-width:1.0;" width="6" x="2581.5" y="560.3047"/>
            <text fill="#000000" font-family="sans-serif" font-size="14" lengthAdjust="spacing" textLength="102" x="2593.5" y="567.5332">direccion: String</text>
            <rect fill="none" height="6" style="stroke:#C82930;stroke-width:1.0;" width="6" x="2581.5" y="577.9141"/>
            <text fill="#000000" font-family="sans-serif" font-size="14" lengthAdjust="spacing" textLength="96" x="2593.5" y="585.1426">telefono: String</text>
            <rect fill="none" height="6" style="stroke:#C82930;stroke-width:1.0;" width="6" x="2581.5" y="595.5234"/>
            <text fill="#000000" font-family="sans-serif" font-size="14" lengthAdjust="spacing" textLength="240" x="2593.5" y="602.752">historiasClinicas: List&lt;IHistoriaClinica&gt;</text>
            <line style="stroke:#181818;stroke-width:0.5;" x1="2574.5" x2="2923.5" y1="609.8281" y2="609.8281"/>
            <ellipse cx="2584.5" cy="624.1328" fill="#84BE84" rx="3" ry="3" style="stroke:#038048;stroke-width:1.0;"/>
            <text fill="#000000" font-family="sans-serif" font-size="14" lengthAdjust="spacing" textLength="325" x="2593.5" y="628.3613">agregarHistoriaClinica(IHistoriaClinica historia): void</text>
            <ellipse cx="2584.5" cy="641.7422" fill="#84BE84" rx="3" ry="3" style="stroke:#038048;stroke-width:1.0;"/>
            <text fill="#000000" font-family="sans-serif" font-size="14" lengthAdjust="spacing" textLength="300" x="2593.5" y="645.9707">obtenerHistoriasClinicas(): List&lt;IHistoriaClinica&gt;</text>
        </g>
        <!--class Usuario-->
        <g id="elem_Usuario">
            <rect fill="#F1F1F1" height="48" id="Usuario" rx="2.5" ry="2.5" style="stroke:#181818;stroke-width:0.5;" width="80" x="2856" y="364.5"/>
            <ellipse cx="2871" cy="380.5" fill="#ADD1B2" rx="11" ry="11" style="stroke:#181818;stroke-width:1.0;"/>
            <path d="M2873.7656,376.375 Q2873.9219,376.1563 2874.1094,376.0469 Q2874.2969,375.9375 2874.5156,375.9375 Q2874.8906,375.9375 2875.125,376.2031 Q2875.3594,376.4531 2875.3594,377.0625 L2875.3594,378.5156 Q2875.3594,379.125 2875.125,379.3906 Q2874.8906,379.6563 2874.5156,379.6563 Q2874.1719,379.6563 2873.9688,379.4531 Q2873.7656,379.2656 2873.6563,378.75 Q2873.6094,378.3906 2873.4219,378.2031 Q2873.0938,377.8281 2872.4844,377.6094 Q2871.875,377.3906 2871.25,377.3906 Q2870.4844,377.3906 2869.8438,377.7188 Q2869.2188,378.0469 2868.7188,378.7969 Q2868.2344,379.5469 2868.2344,380.5781 L2868.2344,381.6719 Q2868.2344,382.9063 2869.125,383.7344 Q2870.0156,384.5469 2871.6094,384.5469 Q2872.5469,384.5469 2873.2031,384.2969 Q2873.5938,384.1406 2874.0156,383.7031 Q2874.2813,383.4375 2874.4219,383.3594 Q2874.5781,383.2813 2874.7813,383.2813 Q2875.1094,383.2813 2875.3594,383.5469 Q2875.625,383.7969 2875.625,384.1406 Q2875.625,384.4844 2875.2813,384.8906 Q2874.7813,385.4688 2873.9844,385.7969 Q2872.9063,386.25 2871.6094,386.25 Q2870.0938,386.25 2868.8906,385.625 Q2867.9063,385.125 2867.2188,384.0625 Q2866.5313,382.9844 2866.5313,381.7031 L2866.5313,380.5469 Q2866.5313,379.2188 2867.1406,378.0781 Q2867.7656,376.9219 2868.8594,376.3125 Q2869.9531,375.6875 2871.1875,375.6875 Q2871.9219,375.6875 2872.5625,375.8594 Q2873.2188,376.0156 2873.7656,376.375 Z " fill="#000000"/>
            <text fill="#000000" font-family="sans-serif" font-size="14" lengthAdjust="spacing" textLength="48" x="2885" y="386.2285">Usuario</text>
            <line style="stroke:#181818;stroke-width:0.5;" x1="2857" x2="2935" y1="396.5" y2="396.5"/>
            <line style="stroke:#181818;stroke-width:0.5;" x1="2857" x2="2935" y1="404.5" y2="404.5"/>
        </g>
        <!--class IHistoriaClinicaManager-->
        <g id="elem_IHistoriaClinicaManager">
            <rect fill="#F1F1F1" height="48" id="IHistoriaClinicaManager" rx="2.5" ry="2.5" style="stroke:#181818;stroke-width:0.5;" width="183" x="2637.5" y="364.5"/>
            <ellipse cx="2652.5" cy="380.5" fill="#B4A7E5" rx="11" ry="11" style="stroke:#181818;stroke-width:1.0;"/>
            <path d="M2653.4531,377.1406 L2653.4531,383.7969 L2655.1719,383.7969 Q2655.7813,383.7969 2656.0469,384.0313 Q2656.3125,384.2656 2656.3125,384.6563 Q2656.3125,385.0313 2656.0469,385.2656 Q2655.7813,385.5 2655.1719,385.5 L2650.0313,385.5 Q2649.4219,385.5 2649.1563,385.2656 Q2648.8906,385.0313 2648.8906,384.6406 Q2648.8906,384.2656 2649.1563,384.0313 Q2649.4219,383.7969 2650.0313,383.7969 L2651.75,383.7969 L2651.75,377.1406 L2650.0313,377.1406 Q2649.4219,377.1406 2649.1563,376.9063 Q2648.8906,376.6719 2648.8906,376.2813 Q2648.8906,375.9063 2649.1563,375.6719 Q2649.4219,375.4375 2650.0313,375.4375 L2655.1719,375.4375 Q2655.7813,375.4375 2656.0469,375.6719 Q2656.3125,375.9063 2656.3125,376.2813 Q2656.3125,376.6719 2656.0469,376.9063 Q2655.7813,377.1406 2655.1719,377.1406 L2653.4531,377.1406 Z " fill="#000000"/>
            <text fill="#000000" font-family="sans-serif" font-size="14" font-style="italic" lengthAdjust="spacing" textLength="151" x="2666.5" y="386.2285">IHistoriaClinicaManager</text>
            <line style="stroke:#181818;stroke-width:0.5;" x1="2638.5" x2="2819.5" y1="396.5" y2="396.5"/>
            <line style="stroke:#181818;stroke-width:0.5;" x1="2638.5" x2="2819.5" y1="404.5" y2="404.5"/>
        </g>
        <!--class GestionaPaciente-->
        <g id="elem_GestionaPaciente">
            <rect codeLine="47" fill="#F1F1F1" height="100.8281" id="GestionaPaciente" rx="2.5" ry="2.5" style="stroke:#181818;stroke-width:0.5;" width="441" x="2161.5" y="338"/>
            <ellipse cx="2321.75" cy="354" fill="#ADD1B2" rx="11" ry="11" style="stroke:#181818;stroke-width:1.0;"/>
            <path d="M2324.5156,349.875 Q2324.6719,349.6563 2324.8594,349.5469 Q2325.0469,349.4375 2325.2656,349.4375 Q2325.6406,349.4375 2325.875,349.7031 Q2326.1094,349.9531 2326.1094,350.5625 L2326.1094,352.0156 Q2326.1094,352.625 2325.875,352.8906 Q2325.6406,353.1563 2325.2656,353.1563 Q2324.9219,353.1563 2324.7188,352.9531 Q2324.5156,352.7656 2324.4063,352.25 Q2324.3594,351.8906 2324.1719,351.7031 Q2323.8438,351.3281 2323.2344,351.1094 Q2322.625,350.8906 2322,350.8906 Q2321.2344,350.8906 2320.5938,351.2188 Q2319.9688,351.5469 2319.4688,352.2969 Q2318.9844,353.0469 2318.9844,354.0781 L2318.9844,355.1719 Q2318.9844,356.4063 2319.875,357.2344 Q2320.7656,358.0469 2322.3594,358.0469 Q2323.2969,358.0469 2323.9531,357.7969 Q2324.3438,357.6406 2324.7656,357.2031 Q2325.0313,356.9375 2325.1719,356.8594 Q2325.3281,356.7813 2325.5313,356.7813 Q2325.8594,356.7813 2326.1094,357.0469 Q2326.375,357.2969 2326.375,357.6406 Q2326.375,357.9844 2326.0313,358.3906 Q2325.5313,358.9688 2324.7344,359.2969 Q2323.6563,359.75 2322.3594,359.75 Q2320.8438,359.75 2319.6406,359.125 Q2318.6563,358.625 2317.9688,357.5625 Q2317.2813,356.4844 2317.2813,355.2031 L2317.2813,354.0469 Q2317.2813,352.7188 2317.8906,351.5781 Q2318.5156,350.4219 2319.6094,349.8125 Q2320.7031,349.1875 2321.9375,349.1875 Q2322.6719,349.1875 2323.3125,349.3594 Q2323.9688,349.5156 2324.5156,349.875 Z " fill="#000000"/>
            <text fill="#000000" font-family="sans-serif" font-size="14" lengthAdjust="spacing" textLength="112" x="2342.25" y="359.7285">GestionaPaciente</text>
            <line style="stroke:#181818;stroke-width:0.5;" x1="2162.5" x2="2601.5" y1="370" y2="370"/>
            <rect fill="none" height="6" style="stroke:#C82930;stroke-width:1.0;" width="6" x="2169.5" y="381.3047"/>
            <text fill="#000000" font-family="sans-serif" font-size="14" lengthAdjust="spacing" textLength="162" x="2181.5" y="388.5332">pacientes: List&lt;Paciente&gt;</text>
            <line style="stroke:#181818;stroke-width:0.5;" x1="2162.5" x2="2601.5" y1="395.6094" y2="395.6094"/>
            <ellipse cx="2172.5" cy="409.9141" fill="#84BE84" rx="3" ry="3" style="stroke:#038048;stroke-width:1.0;"/>
            <text fill="#000000" font-family="sans-serif" font-size="14" lengthAdjust="spacing" textLength="415" x="2181.5" y="414.1426">cargarPacientesDesdeArchivo(String rutaArchivo): List&lt;Paciente&gt;</text>
            <ellipse cx="2172.5" cy="427.5234" fill="#84BE84" rx="3" ry="3" style="stroke:#038048;stroke-width:1.0;"/>
            <text fill="#000000" font-family="sans-serif" font-size="14" lengthAdjust="spacing" textLength="274" x="2181.5" y="431.752">buscarPacientePorDni(String dni): Paciente</text>
        </g>
        <!--class GestionaConsultaImpl-->
        <g id="elem_GestionaConsultaImpl">
            <rect codeLine="54" fill="#F1F1F1" height="100.8281" id="GestionaConsultaImpl" rx="2.5" ry="2.5" style="stroke:#181818;stroke-width:0.5;" width="538" x="793" y="338"/>
            <ellipse cx="988.75" cy="354" fill="#ADD1B2" rx="11" ry="11" style="stroke:#181818;stroke-width:1.0;"/>
            <path d="M991.5156,349.875 Q991.6719,349.6563 991.8594,349.5469 Q992.0469,349.4375 992.2656,349.4375 Q992.6406,349.4375 992.875,349.7031 Q993.1094,349.9531 993.1094,350.5625 L993.1094,352.0156 Q993.1094,352.625 992.875,352.8906 Q992.6406,353.1563 992.2656,353.1563 Q991.9219,353.1563 991.7188,352.9531 Q991.5156,352.7656 991.4063,352.25 Q991.3594,351.8906 991.1719,351.7031 Q990.8438,351.3281 990.2344,351.1094 Q989.625,350.8906 989,350.8906 Q988.2344,350.8906 987.5938,351.2188 Q986.9688,351.5469 986.4688,352.2969 Q985.9844,353.0469 985.9844,354.0781 L985.9844,355.1719 Q985.9844,356.4063 986.875,357.2344 Q987.7656,358.0469 989.3594,358.0469 Q990.2969,358.0469 990.9531,357.7969 Q991.3438,357.6406 991.7656,357.2031 Q992.0313,356.9375 992.1719,356.8594 Q992.3281,356.7813 992.5313,356.7813 Q992.8594,356.7813 993.1094,357.0469 Q993.375,357.2969 993.375,357.6406 Q993.375,357.9844 993.0313,358.3906 Q992.5313,358.9688 991.7344,359.2969 Q990.6563,359.75 989.3594,359.75 Q987.8438,359.75 986.6406,359.125 Q985.6563,358.625 984.9688,357.5625 Q984.2813,356.4844 984.2813,355.2031 L984.2813,354.0469 Q984.2813,352.7188 984.8906,351.5781 Q985.5156,350.4219 986.6094,349.8125 Q987.7031,349.1875 988.9375,349.1875 Q989.6719,349.1875 990.3125,349.3594 Q990.9688,349.5156 991.5156,349.875 Z " fill="#000000"/>
            <text fill="#000000" font-family="sans-serif" font-size="14" lengthAdjust="spacing" textLength="138" x="1009.25" y="359.7285">GestionaConsultaImpl</text>
            <line style="stroke:#181818;stroke-width:0.5;" x1="794" x2="1330" y1="370" y2="370"/>
            <rect fill="none" height="6" style="stroke:#C82930;stroke-width:1.0;" width="6" x="801" y="381.3047"/>
            <text fill="#000000" font-family="sans-serif" font-size="14" lengthAdjust="spacing" textLength="162" x="813" y="388.5332">pacientes: List&lt;Paciente&gt;</text>
            <line style="stroke:#181818;stroke-width:0.5;" x1="794" x2="1330" y1="395.6094" y2="395.6094"/>
            <ellipse cx="804" cy="409.9141" fill="#84BE84" rx="3" ry="3" style="stroke:#038048;stroke-width:1.0;"/>
            <text fill="#000000" font-family="sans-serif" font-size="14" lengthAdjust="spacing" textLength="512" x="813" y="414.1426">registrarConsulta(Scanner sc, Medico medico, String pathArchivoPacientes): void</text>
            <ellipse cx="804" cy="427.5234" fill="#84BE84" rx="3" ry="3" style="stroke:#038048;stroke-width:1.0;"/>
            <text fill="#000000" font-family="sans-serif" font-size="14" lengthAdjust="spacing" textLength="248" x="813" y="431.752">verHistorialConsultas(Scanner sc): void</text>
        </g>
        <!--class IGestionaConsulta-->
        <g id="elem_IGestionaConsulta">
            <rect fill="#F1F1F1" height="48" id="IGestionaConsulta" rx="2.5" ry="2.5" style="stroke:#181818;stroke-width:0.5;" width="149" x="987.5" y="111.5"/>
            <ellipse cx="1002.5" cy="127.5" fill="#B4A7E5" rx="11" ry="11" style="stroke:#181818;stroke-width:1.0;"/>
            <path d="M1003.4531,124.1406 L1003.4531,130.7969 L1005.1719,130.7969 Q1005.7813,130.7969 1006.0469,131.0313 Q1006.3125,131.2656 1006.3125,131.6563 Q1006.3125,132.0313 1006.0469,132.2656 Q1005.7813,132.5 1005.1719,132.5 L1000.0313,132.5 Q999.4219,132.5 999.1563,132.2656 Q998.8906,132.0313 998.8906,131.6406 Q998.8906,131.2656 999.1563,131.0313 Q999.4219,130.7969 1000.0313,130.7969 L1001.75,130.7969 L1001.75,124.1406 L1000.0313,124.1406 Q999.4219,124.1406 999.1563,123.9063 Q998.8906,123.6719 998.8906,123.2813 Q998.8906,122.9063 999.1563,122.6719 Q999.4219,122.4375 1000.0313,122.4375 L1005.1719,122.4375 Q1005.7813,122.4375 1006.0469,122.6719 Q1006.3125,122.9063 1006.3125,123.2813 Q1006.3125,123.6719 1006.0469,123.9063 Q1005.7813,124.1406 1005.1719,124.1406 L1003.4531,124.1406 Z " fill="#000000"/>
            <text fill="#000000" font-family="sans-serif" font-size="14" font-style="italic" lengthAdjust="spacing" textLength="117" x="1016.5" y="133.2285">IGestionaConsulta</text>
            <line style="stroke:#181818;stroke-width:0.5;" x1="988.5" x2="1135.5" y1="143.5" y2="143.5"/>
            <line style="stroke:#181818;stroke-width:0.5;" x1="988.5" x2="1135.5" y1="151.5" y2="151.5"/>
        </g>
        <!--class HistoriaClinicaImpl-->
        <g id="elem_HistoriaClinicaImpl">
            <rect codeLine="60" fill="#F1F1F1" height="171.2656" id="HistoriaClinicaImpl" rx="2.5" ry="2.5" style="stroke:#181818;stroke-width:0.5;" width="412" x="1610" y="732"/>
            <ellipse cx="1754.75" cy="748" fill="#ADD1B2" rx="11" ry="11" style="stroke:#181818;stroke-width:1.0;"/>
            <path d="M1757.5156,743.875 Q1757.6719,743.6563 1757.8594,743.5469 Q1758.0469,743.4375 1758.2656,743.4375 Q1758.6406,743.4375 1758.875,743.7031 Q1759.1094,743.9531 1759.1094,744.5625 L1759.1094,746.0156 Q1759.1094,746.625 1758.875,746.8906 Q1758.6406,747.1563 1758.2656,747.1563 Q1757.9219,747.1563 1757.7188,746.9531 Q1757.5156,746.7656 1757.4063,746.25 Q1757.3594,745.8906 1757.1719,745.7031 Q1756.8438,745.3281 1756.2344,745.1094 Q1755.625,744.8906 1755,744.8906 Q1754.2344,744.8906 1753.5938,745.2188 Q1752.9688,745.5469 1752.4688,746.2969 Q1751.9844,747.0469 1751.9844,748.0781 L1751.9844,749.1719 Q1751.9844,750.4063 1752.875,751.2344 Q1753.7656,752.0469 1755.3594,752.0469 Q1756.2969,752.0469 1756.9531,751.7969 Q1757.3438,751.6406 1757.7656,751.2031 Q1758.0313,750.9375 1758.1719,750.8594 Q1758.3281,750.7813 1758.5313,750.7813 Q1758.8594,750.7813 1759.1094,751.0469 Q1759.375,751.2969 1759.375,751.6406 Q1759.375,751.9844 1759.0313,752.3906 Q1758.5313,752.9688 1757.7344,753.2969 Q1756.6563,753.75 1755.3594,753.75 Q1753.8438,753.75 1752.6406,753.125 Q1751.6563,752.625 1750.9688,751.5625 Q1750.2813,750.4844 1750.2813,749.2031 L1750.2813,748.0469 Q1750.2813,746.7188 1750.8906,745.5781 Q1751.5156,744.4219 1752.6094,743.8125 Q1753.7031,743.1875 1754.9375,743.1875 Q1755.6719,743.1875 1756.3125,743.3594 Q1756.9688,743.5156 1757.5156,743.875 Z " fill="#000000"/>
            <text fill="#000000" font-family="sans-serif" font-size="14" lengthAdjust="spacing" textLength="114" x="1775.25" y="753.7285">HistoriaClinicaImpl</text>
            <line style="stroke:#181818;stroke-width:0.5;" x1="1611" x2="2021" y1="764" y2="764"/>
            <rect fill="none" height="6" style="stroke:#C82930;stroke-width:1.0;" width="6" x="1618" y="775.3047"/>
            <text fill="#000000" font-family="sans-serif" font-size="14" lengthAdjust="spacing" textLength="117" x="1630" y="782.5332">paciente: Paciente</text>
            <rect fill="none" height="6" style="stroke:#C82930;stroke-width:1.0;" width="6" x="1618" y="792.9141"/>
            <text fill="#000000" font-family="sans-serif" font-size="14" lengthAdjust="spacing" textLength="98" x="1630" y="800.1426">medico: Medico</text>
            <rect fill="none" height="6" style="stroke:#C82930;stroke-width:1.0;" width="6" x="1618" y="810.5234"/>
            <text fill="#000000" font-family="sans-serif" font-size="14" lengthAdjust="spacing" textLength="163" x="1630" y="817.752">fechaConsulta: LocalDate</text>
            <rect fill="none" height="6" style="stroke:#C82930;stroke-width:1.0;" width="6" x="1618" y="828.1328"/>
            <text fill="#000000" font-family="sans-serif" font-size="14" lengthAdjust="spacing" textLength="117" x="1630" y="835.3613">diagnostico: String</text>
            <rect fill="none" height="6" style="stroke:#C82930;stroke-width:1.0;" width="6" x="1618" y="845.7422"/>
            <text fill="#000000" font-family="sans-serif" font-size="14" lengthAdjust="spacing" textLength="116" x="1630" y="852.9707">tratamiento: String</text>
            <line style="stroke:#181818;stroke-width:0.5;" x1="1611" x2="2021" y1="860.0469" y2="860.0469"/>
            <ellipse cx="1621" cy="874.3516" fill="#84BE84" rx="3" ry="3" style="stroke:#038048;stroke-width:1.0;"/>
            <text fill="#000000" font-family="sans-serif" font-size="14" lengthAdjust="spacing" textLength="386" x="1630" y="878.5801">registrarConsulta(String diagnostico, String tratamiento): void</text>
            <ellipse cx="1621" cy="891.9609" fill="#84BE84" rx="3" ry="3" style="stroke:#038048;stroke-width:1.0;"/>
            <text fill="#000000" font-family="sans-serif" font-size="14" lengthAdjust="spacing" textLength="233" x="1630" y="896.1895">obtenerInformacionConsulta(): String</text>
        </g>
        <!--class IHistoriaClinica-->
        <g id="elem_IHistoriaClinica">
            <rect fill="#F1F1F1" height="48" id="IHistoriaClinica" rx="2.5" ry="2.5" style="stroke:#181818;stroke-width:0.5;" width="126" x="1753" y="561"/>
            <ellipse cx="1768" cy="577" fill="#B4A7E5" rx="11" ry="11" style="stroke:#181818;stroke-width:1.0;"/>
            <path d="M1768.9531,573.6406 L1768.9531,580.2969 L1770.6719,580.2969 Q1771.2813,580.2969 1771.5469,580.5313 Q1771.8125,580.7656 1771.8125,581.1563 Q1771.8125,581.5313 1771.5469,581.7656 Q1771.2813,582 1770.6719,582 L1765.5313,582 Q1764.9219,582 1764.6563,581.7656 Q1764.3906,581.5313 1764.3906,581.1406 Q1764.3906,580.7656 1764.6563,580.5313 Q1764.9219,580.2969 1765.5313,580.2969 L1767.25,580.2969 L1767.25,573.6406 L1765.5313,573.6406 Q1764.9219,573.6406 1764.6563,573.4063 Q1764.3906,573.1719 1764.3906,572.7813 Q1764.3906,572.4063 1764.6563,572.1719 Q1764.9219,571.9375 1765.5313,571.9375 L1770.6719,571.9375 Q1771.2813,571.9375 1771.5469,572.1719 Q1771.8125,572.4063 1771.8125,572.7813 Q1771.8125,573.1719 1771.5469,573.4063 Q1771.2813,573.6406 1770.6719,573.6406 L1768.9531,573.6406 Z " fill="#000000"/>
            <text fill="#000000" font-family="sans-serif" font-size="14" font-style="italic" lengthAdjust="spacing" textLength="94" x="1782" y="582.7285">IHistoriaClinica</text>
            <line style="stroke:#181818;stroke-width:0.5;" x1="1754" x2="1878" y1="593" y2="593"/>
            <line style="stroke:#181818;stroke-width:0.5;" x1="1754" x2="1878" y1="601" y2="601"/>
        </g>
        <!--class IHistoriaClinicaManager-->
        <g id="elem_IHistoriaClinicaManager">
            <rect fill="#F1F1F1" height="48" id="IHistoriaClinicaManager" rx="2.5" ry="2.5" style="stroke:#181818;stroke-width:0.5;" width="180" x="1914" y="561"/>
            <ellipse cx="1929" cy="577" fill="#ADD1B2" rx="11" ry="11" style="stroke:#181818;stroke-width:1.0;"/>
            <path d="M1931.7656,572.875 Q1931.9219,572.6563 1932.1094,572.5469 Q1932.2969,572.4375 1932.5156,572.4375 Q1932.8906,572.4375 1933.125,572.7031 Q1933.3594,572.9531 1933.3594,573.5625 L1933.3594,575.0156 Q1933.3594,575.625 1933.125,575.8906 Q1932.8906,576.1563 1932.5156,576.1563 Q1932.1719,576.1563 1931.9688,575.9531 Q1931.7656,575.7656 1931.6563,575.25 Q1931.6094,574.8906 1931.4219,574.7031 Q1931.0938,574.3281 1930.4844,574.1094 Q1929.875,573.8906 1929.25,573.8906 Q1928.4844,573.8906 1927.8438,574.2188 Q1927.2188,574.5469 1926.7188,575.2969 Q1926.2344,576.0469 1926.2344,577.0781 L1926.2344,578.1719 Q1926.2344,579.4063 1927.125,580.2344 Q1928.0156,581.0469 1929.6094,581.0469 Q1930.5469,581.0469 1931.2031,580.7969 Q1931.5938,580.6406 1932.0156,580.2031 Q1932.2813,579.9375 1932.4219,579.8594 Q1932.5781,579.7813 1932.7813,579.7813 Q1933.1094,579.7813 1933.3594,580.0469 Q1933.625,580.2969 1933.625,580.6406 Q1933.625,580.9844 1933.2813,581.3906 Q1932.7813,581.9688 1931.9844,582.2969 Q1930.9063,582.75 1929.6094,582.75 Q1928.0938,582.75 1926.8906,582.125 Q1925.9063,581.625 1925.2188,580.5625 Q1924.5313,579.4844 1924.5313,578.2031 L1924.5313,577.0469 Q1924.5313,575.7188 1925.1406,574.5781 Q1925.7656,573.4219 1926.8594,572.8125 Q1927.9531,572.1875 1929.1875,572.1875 Q1929.9219,572.1875 1930.5625,572.3594 Q1931.2188,572.5156 1931.7656,572.875 Z " fill="#000000"/>
            <text fill="#000000" font-family="sans-serif" font-size="14" lengthAdjust="spacing" textLength="148" x="1943" y="582.7285">IHistoriaClinicaManager</text>
            <line style="stroke:#181818;stroke-width:0.5;" x1="1915" x2="2093" y1="593" y2="593"/>
            <line style="stroke:#181818;stroke-width:0.5;" x1="1915" x2="2093" y1="601" y2="601"/>
        </g>
        <!--reverse link Usuario to Medico-->
        <g id="link_Usuario_Medico">
            <path d="M1538,430.58 C1538,460.36 1538,495 1538,534.12 " fill="none" id="Usuario-backto-Medico" style="stroke:#181818;stroke-width:1.0;"/>
            <polygon fill="none" points="1538,412.58,1532,430.58,1544,430.58,1538,412.58" style="stroke:#181818;stroke-width:1.0;"/>
        </g>
        <!--reverse link Usuario to Paciente-->
        <g id="link_Usuario_Paciente">
            <path d="M2867.7034,426.9374 C2848.3834,452.4874 2827.21,480.52 2799.82,516.75 " fill="none" id="Usuario-backto-Paciente" style="stroke:#181818;stroke-width:1.0;"/>
            <polygon fill="none" points="2878.56,412.58,2862.9176,423.3186,2872.4892,430.5563,2878.56,412.58" style="stroke:#181818;stroke-width:1.0;"/>
        </g>
        <!--reverse link IHistoriaClinicaManager to Paciente-->
        <g id="link_IHistoriaClinicaManager_Paciente">
            <path d="M2733.2131,430.4854 C2735.8431,456.0354 2738.36,480.52 2742.09,516.75 " fill="none" id="IHistoriaClinicaManager-backto-Paciente" style="stroke:#181818;stroke-width:1.0;stroke-dasharray:7.0,7.0;"/>
            <polygon fill="none" points="2731.37,412.58,2727.2446,431.0998,2739.1816,429.871,2731.37,412.58" style="stroke:#181818;stroke-width:1.0;"/>
        </g>
        <!--reverse link IGestionaConsulta to GestionaConsultaImpl-->
        <g id="link_IGestionaConsulta_GestionaConsultaImpl">
            <path d="M1051.7526,177.4887 C1046.1526,217.7887 1047.75,283.79 1051.59,337.76 " fill="none" id="IGestionaConsulta-backto-GestionaConsultaImpl" style="stroke:#181818;stroke-width:1.0;stroke-dasharray:7.0,7.0;"/>
            <polygon fill="none" points="1054.23,159.66,1045.8097,176.6629,1057.6955,178.3145,1054.23,159.66" style="stroke:#181818;stroke-width:1.0;"/>
        </g>
        <!--reverse link IGestionaConsulta to GestionaConsultaImpl-->
        <g id="link_IGestionaConsulta_GestionaConsultaImpl">
            <path codeLine="75" d="M1072.8461,177.4689 C1078.7661,217.7689 1077.08,283.79 1073.02,337.76 " fill="none" id="IGestionaConsulta-backto-GestionaConsultaImpl-1" style="stroke:#181818;stroke-width:1.0;"/>
            <polygon fill="none" points="1070.23,159.66,1066.9098,178.3409,1078.7824,176.5968,1070.23,159.66" style="stroke:#181818;stroke-width:1.0;"/>
        </g>
        <!--reverse link IHistoriaClinica to HistoriaClinicaImpl-->
        <g id="link_IHistoriaClinica_HistoriaClinicaImpl">
            <path d="M1805.4093,627.194 C1801.3793,655.804 1802.47,688.04 1803.66,731.77 " fill="none" id="IHistoriaClinica-backto-HistoriaClinicaImpl" style="stroke:#181818;stroke-width:1.0;stroke-dasharray:7.0,7.0;"/>
            <polygon fill="none" points="1807.92,609.37,1799.468,626.3571,1811.3507,628.0309,1807.92,609.37" style="stroke:#181818;stroke-width:1.0;"/>
        </g>
        <!--reverse link IHistoriaClinica to HistoriaClinicaImpl-->
        <g id="link_IHistoriaClinica_HistoriaClinicaImpl">
            <path codeLine="76" d="M1827.207,627.1728 C1831.477,655.7828 1830.33,688.04 1829.07,731.77 " fill="none" id="IHistoriaClinica-backto-HistoriaClinicaImpl-1" style="stroke:#181818;stroke-width:1.0;"/>
            <polygon fill="none" points="1824.55,609.37,1821.2728,628.0585,1833.1413,626.2871,1824.55,609.37" style="stroke:#181818;stroke-width:1.0;"/>
        </g>
        <!--link Medico to IHistoriaClinica-->
        <g id="link_Medico_IHistoriaClinica">
            <path codeLine="70" d="M1729.1991,406.2818 C1729.2837,406.4549 1729.3688,406.6291 1729.4544,406.8045 C1730.1396,408.2072 1730.8594,409.681 1731.6113,411.2205 C1737.6263,423.5359 1745.6925,440.0519 1754.46,458.0038 C1771.995,493.9075 1789.7017,530.1637 1802.0467,555.4387 " fill="none" id="Medico-to-IHistoriaClinica" style="stroke:#181818;stroke-width:1.0;"/>
            <polygon fill="#181818" points="1804.68,560.83,1804.3243,550.9876,1802.4856,556.3373,1797.1359,554.4986,1804.68,560.83" style="stroke:#181818;stroke-width:1.0;"/>
            <text fill="#000000" font-family="sans-serif" font-size="13" lengthAdjust="spacing" textLength="39" x="1757.7824" y="550.1266">agrega</text>
        </g>
        <!--link Paciente to IHistoriaClinica-->
        <g id="link_Paciente_IHistoriaClinica">
            <path codeLine="71" d="M2117.9813,393.2686 C2117.7099,393.3977 2117.4321,393.5298 2117.1479,393.6651 C2116.5796,393.9357 2115.986,394.2188 2115.3678,394.5141 C2114.1313,395.1048 2112.7962,395.7445 2111.3675,396.4316 C2108.51,397.8058 2105.2778,399.3695 2101.7106,401.1095 C2087.4419,408.0697 2067.8125,417.8506 2045.3575,429.6038 C2000.4475,453.11 1944.235,484.505 1897,517 C1877.6,530.34 1861.7147,543.3095 1846.2247,556.7995 " fill="none" id="Paciente-to-IHistoriaClinica" style="stroke:#181818;stroke-width:1.0;"/>
            <polygon fill="#181818" points="1841.7,560.74,1851.114,557.8457,1845.4706,557.4563,1845.86,551.8128,1841.7,560.74" style="stroke:#181818;stroke-width:1.0;"/>
            <text fill="#000000" font-family="sans-serif" font-size="13" lengthAdjust="spacing" textLength="73" x="1971" y="483.4951">composición</text>
        </g>
        <!--link Paciente to IHistoriaClinicaManager-->
        <g id="link_Paciente_IHistoriaClinicaManager">
            <path codeLine="72" d="M2117.9413,402.3475 C2117.8444,402.502 2117.7467,402.6577 2117.6483,402.8147 C2116.0737,405.3253 2114.3072,408.1416 2112.3761,411.2205 C2104.6516,423.5359 2094.2919,440.0519 2083.0313,458.0038 C2060.51,493.9075 2037.5734,530.4723 2021.7184,555.7473 " fill="none" id="Paciente-to-IHistoriaClinicaManager" style="stroke:#181818;stroke-width:1.0;"/>
            <polygon fill="#181818" points="2018.53,560.83,2026.7011,555.3315,2021.187,556.5944,2019.9241,551.0803,2018.53,560.83" style="stroke:#181818;stroke-width:1.0;"/>
        </g>
        <!--reverse link Usuario to Medico-->
        <g id="link_Usuario_Medico">
            <path codeLine="73" d="M1904.1959,160.9857 C1898.5133,168.0116 1900.8423,165.1323 1891.3777,176.8345 C1872.4484,200.2391 1847.4681,231.1256 1822.4887,262.0113 C1797.5094,292.8969 1772.5309,323.7816 1753.6055,347.1823 C1744.1427,358.8827 1736.1932,368.7121 1730.5135,375.7352 C1730.1585,376.1742 1729.8124,376.6021 1729.4753,377.0189 C1729.3911,377.1231 1729.3074,377.2266 1729.2242,377.3294 " fill="none" id="Usuario-backto-Medico-1" style="stroke:#181818;stroke-width:1.0;"/>
            <polygon fill="none" points="1915.5154,146.9904,1899.5308,157.2125,1908.861,164.7589,1915.5154,146.9904" style="stroke:#181818;stroke-width:1.0;"/>
        </g>
        <!--reverse link Usuario to Paciente-->
        <g id="link_Usuario_Paciente">
            <path codeLine="74" d="M1941.9257,261.997 C1942.0958,262.3993 1935.6013,246.7881 1935.7755,247.1881 C1936.4726,248.7881 1937.2034,250.3694 1937.9694,251.929 C1939.5015,255.048 1941.1744,258.08 1943,261 C1968.795,302.265 2013.53,333.555 2052.3125,354.6925 C2071.7038,365.2613 2089.6069,373.2919 2102.9103,378.7622 C2106.2362,380.1298 2109.2746,381.3373 2111.9768,382.3845 C2113.328,382.9081 2114.5951,383.3916 2115.7721,383.835 C2116.3606,384.0567 2116.9266,384.2683 2117.4693,384.4699 C2117.605,384.5203 2117.7392,384.5701 2117.8719,384.6193 " fill="none" id="Usuario-backto-Paciente-1" style="stroke:#181818;stroke-width:1.0;"/>
            <polygon fill="none" points="1935.0055,245.3804,1936.3868,264.3037,1947.4645,259.6902,1935.0055,245.3804" style="stroke:#181818;stroke-width:1.0;"/>
        </g>
        <!--SRC=[hLLHRjim3FttAGH_9MXzWQ0eC3H36s050cpx7XXPSOJPeY4fsO2kfzeHTh7HYMHBjfe4w_mJXAGeliT7gWN-7Ih1yfMoGc-12_FjwQ6MIdB8sKl6w9FUnLPFqbZK4bo42-Y-6wP5HLuD-W6LsTSMPf-jbgfYfOHAeR6IuorpDegpq4YXBCw37BYnGWczKblK3N29gaysNxYpn_3Nx49fpw08buugX8fg13sAd4rGxTp_H6K-rBXOqzNrYOntuoptRzJvA8W9LE21NUAGWw9xcU6tx5cKn25hZZyzbItOtGVDT_A0QwACA1LcpXRiWB8CKX-6uckVtGJfeoEl6HNUUcryDNlG4hqUODELo2tZDHZ3d3V0KJ25pKQBg6Cd1xIYhcM92LUfPCBQqXK_K9S9br1SozP2YNh1LX-7Vp5gkQLkwBNBCmkkkQM-j7kx7br17TqWrW9KaCXVDYHgfySYWOOCdZhd2JpnvhefVfAmoZIDmhI2Kxza2LC2ReB10Zqpf35imAJByVBYWY1y6OPl5WpYDK2ymc8etZe18vks5Wsvp1K3IXAGL64tzObkMr6BBQgKSdRZeJmxal-u2oO3zRwDS2BEBuEUm9T8-cwQNJuV5CAWpbUT9btaKfXIk6NWrw_UMt2c-PbCcxtXGwOrwgMI_GPNaevwto2B68JVAYjgUjJvDrRU9OJ_SHq6pRjY4xhe7k2eZnDywLTnW3UYhd0bBnm2PzmAlkif8aAGGxs4_apmYaOZKB3426VlV98Zlgvwb8airu-Yk6VvQRpo2JTPh_GkRCBSWkKScnQDvFBFRvMV3tSh9FFRvkvNKNXE8rjF_rIAHtzAmTcak6DeGWlPNm00]-->
    </g>
</svg>
